<svg width="40" height="40" viewBox="0 0 40 40" fill="none" xmlns="http://www.w3.org/2000/svg">
<path d="M0 12C0 5.37258 5.37258 0 12 0H28C34.6274 0 40 5.37258 40 12V28C40 34.6274 34.6274 40 28 40H12C5.37258 40 0 34.6274 0 28V12Z" fill="#F3F4F5"/>
<path d="M18.8452 26C18.9622 26.2027 19.1306 26.371 19.3332 26.488C19.5359 26.605 19.7658 26.6666 19.9999 26.6666C20.2339 26.6666 20.4638 26.605 20.6665 26.488C20.8692 26.371 21.0375 26.2027 21.1545 26" stroke="#08090A" stroke-width="1.33333" stroke-linecap="round" stroke-linejoin="round"/>
<path d="M14.1747 22.2173C14.0876 22.3127 14.0301 22.4314 14.0092 22.5589C13.9884 22.6864 14.005 22.8173 14.0571 22.9355C14.1093 23.0538 14.1946 23.1543 14.3028 23.2249C14.4111 23.2955 14.5375 23.3332 14.6667 23.3333H25.3333C25.4625 23.3333 25.589 23.2958 25.6972 23.2253C25.8055 23.1548 25.891 23.0544 25.9433 22.9363C25.9955 22.8181 26.0123 22.6873 25.9916 22.5598C25.9709 22.4322 25.9136 22.3135 25.8267 22.2179C24.94 21.3039 24 20.3326 24 17.3333C24 16.2724 23.5786 15.255 22.8284 14.5048C22.0783 13.7547 21.0609 13.3333 20 13.3333C18.9391 13.3333 17.9217 13.7547 17.1716 14.5048C16.4214 15.255 16 16.2724 16 17.3333C16 20.3326 15.0593 21.3039 14.1747 22.2173Z" stroke="#08090A" stroke-width="1.33333" stroke-linecap="round" stroke-linejoin="round"/>
</svg>
