<svg width="50" height="22" viewBox="0 0 50 22" fill="none" xmlns="http://www.w3.org/2000/svg">
<path d="M26.0175 7.02539L27.6491 9.47472" stroke="#C9CCD1" stroke-width="1.83333" stroke-linecap="round" stroke-linejoin="round"/>
<path d="M26.9818 11.7224L23.9348 13.0277" stroke="#C9CCD1" stroke-width="1.83333" stroke-linecap="round" stroke-linejoin="round"/>
<path d="M32.3333 3.66675L26.7783 5.0555" stroke="#C9CCD1" stroke-width="1.83333" stroke-linecap="round" stroke-linejoin="round"/>
<path d="M16.75 2.75V17.4167C16.75 17.9029 16.9432 18.3692 17.287 18.713C17.6308 19.0568 18.0971 19.25 18.5833 19.25H33.25" stroke="#C9CCD1" stroke-width="1.83333" stroke-linecap="round" stroke-linejoin="round"/>
<path d="M25 7.33341C26.0125 7.33341 26.8333 6.5126 26.8333 5.50008C26.8333 4.48756 26.0125 3.66675 25 3.66675C23.9874 3.66675 23.1666 4.48756 23.1666 5.50008C23.1666 6.5126 23.9874 7.33341 25 7.33341Z" stroke="#C9CCD1" stroke-width="1.83333" stroke-linecap="round" stroke-linejoin="round"/>
<path d="M28.6667 12.8334C29.6792 12.8334 30.5 12.0126 30.5 11.0001C30.5 9.98756 29.6792 9.16675 28.6667 9.16675C27.6542 9.16675 26.8334 9.98756 26.8334 11.0001C26.8334 12.0126 27.6542 12.8334 28.6667 12.8334Z" stroke="#C9CCD1" stroke-width="1.83333" stroke-linecap="round" stroke-linejoin="round"/>
<path d="M22.25 15.5834C23.2625 15.5834 24.0833 14.7626 24.0833 13.7501C24.0833 12.7376 23.2625 11.9167 22.25 11.9167C21.2374 11.9167 20.4166 12.7376 20.4166 13.7501C20.4166 14.7626 21.2374 15.5834 22.25 15.5834Z" stroke="#C9CCD1" stroke-width="1.83333" stroke-linecap="round" stroke-linejoin="round"/>
</svg>
