<svg width="50" height="22" viewBox="0 0 50 22" fill="none" xmlns="http://www.w3.org/2000/svg">
<path d="M25.0312 11.6243C24.9982 11.5414 24.9902 11.4506 25.0082 11.3632C25.0262 11.2758 25.0694 11.1956 25.1325 11.1325C25.1956 11.0694 25.2758 11.0262 25.3632 11.0082C25.4506 10.9902 25.5414 10.9982 25.6243 11.0312L33.8743 14.2396C33.9628 14.2741 34.0383 14.3353 34.0905 14.4146C34.1426 14.494 34.1689 14.5876 34.1656 14.6825C34.1622 14.7774 34.1295 14.8689 34.0719 14.9444C34.0143 15.0199 33.9347 15.0757 33.8441 15.104L30.6871 16.083C30.5446 16.127 30.4151 16.2051 30.3096 16.3106C30.2042 16.416 30.1261 16.5455 30.0821 16.688L29.104 19.8441C29.0757 19.9347 29.0199 20.0143 28.9444 20.0719C28.8689 20.1295 28.7774 20.1622 28.6825 20.1656C28.5876 20.1689 28.494 20.1426 28.4146 20.0905C28.3353 20.0383 28.2741 19.9628 28.2396 19.8743L25.0312 11.6243Z" stroke="#C9CCD1" stroke-width="1.83333" stroke-linecap="round" stroke-linejoin="round"/>
<path d="M18.5834 15.5833C18.5834 12.6659 19.7423 9.86798 21.8052 7.80508C23.8681 5.74218 26.666 4.58325 29.5834 4.58325" stroke="#C9CCD1" stroke-width="1.83333" stroke-linecap="round" stroke-linejoin="round"/>
<path d="M31.4167 6.41667C32.4292 6.41667 33.25 5.59586 33.25 4.58333C33.25 3.57081 32.4292 2.75 31.4167 2.75C30.4042 2.75 29.5834 3.57081 29.5834 4.58333C29.5834 5.59586 30.4042 6.41667 31.4167 6.41667Z" stroke="#C9CCD1" stroke-width="1.83333" stroke-linecap="round" stroke-linejoin="round"/>
<path d="M18.5833 19.2499C19.5959 19.2499 20.4167 18.4291 20.4167 17.4166C20.4167 16.4041 19.5959 15.5833 18.5833 15.5833C17.5708 15.5833 16.75 16.4041 16.75 17.4166C16.75 18.4291 17.5708 19.2499 18.5833 19.2499Z" stroke="#C9CCD1" stroke-width="1.83333" stroke-linecap="round" stroke-linejoin="round"/>
</svg>
