<svg width="50" height="22" viewBox="0 0 50 22" fill="none" xmlns="http://www.w3.org/2000/svg">
<path d="M27.75 19.25V11.9167C27.75 11.6736 27.6534 11.4404 27.4815 11.2685C27.3096 11.0966 27.0764 11 26.8333 11H23.1667C22.9236 11 22.6904 11.0966 22.5185 11.2685C22.3466 11.4404 22.25 11.6736 22.25 11.9167V19.25" stroke="#C9CCD1" stroke-width="1.83333" stroke-linecap="round" stroke-linejoin="round"/>
<path d="M16.75 9.1666C16.7499 8.89991 16.8081 8.63642 16.9203 8.3945C17.0326 8.15259 17.1962 7.93808 17.3999 7.76593L23.8166 2.26685C24.1475 1.98718 24.5667 1.83374 25 1.83374C25.4333 1.83374 25.8525 1.98718 26.1834 2.26685L32.6001 7.76593C32.8038 7.93808 32.9674 8.15259 33.0797 8.3945C33.1919 8.63642 33.2501 8.89991 33.25 9.1666V17.4166C33.25 17.9028 33.0568 18.3691 32.713 18.713C32.3692 19.0568 31.9029 19.2499 31.4167 19.2499H18.5833C18.0971 19.2499 17.6308 19.0568 17.287 18.713C16.9432 18.3691 16.75 17.9028 16.75 17.4166V9.1666Z" stroke="#C9CCD1" stroke-width="1.83333" stroke-linecap="round" stroke-linejoin="round"/>
</svg>
