<svg width="22" height="22" viewBox="0 0 22 22" fill="none" xmlns="http://www.w3.org/2000/svg">
<path d="M16.5 19.2501C16.5 17.3052 15.7274 15.4399 14.3522 14.0646C12.9769 12.6894 11.1116 11.9167 9.16671 11.9167C7.22179 11.9167 5.35652 12.6894 3.98126 14.0646C2.60599 15.4399 1.83337 17.3052 1.83337 19.2501" stroke="#C9CCD1" stroke-width="1.83333" stroke-linecap="round" stroke-linejoin="round"/>
<path d="M9.16671 11.9167C11.698 11.9167 13.75 9.86464 13.75 7.33333C13.75 4.80203 11.698 2.75 9.16671 2.75C6.6354 2.75 4.58337 4.80203 4.58337 7.33333C4.58337 9.86464 6.6354 11.9167 9.16671 11.9167Z" stroke="#C9CCD1" stroke-width="1.83333" stroke-linecap="round" stroke-linejoin="round"/>
<path d="M20.1668 18.3333C20.1668 15.2441 18.3334 12.3749 16.5001 10.9999C17.1027 10.5478 17.5846 9.9541 17.9031 9.27135C18.2216 8.5886 18.3669 7.83786 18.3261 7.08559C18.2853 6.33331 18.0597 5.60268 17.6693 4.95837C17.2788 4.31406 16.7356 3.77593 16.0876 3.3916" stroke="#C9CCD1" stroke-width="1.83333" stroke-linecap="round" stroke-linejoin="round"/>
</svg>
