<svg width="22" height="22" viewBox="0 0 22 22" fill="none" xmlns="http://www.w3.org/2000/svg">
<g clip-path="url(#clip0_886_213)">
<path d="M13.75 16.5H9.16663" stroke="#C9CCD1" stroke-width="1.83333" stroke-linecap="round" stroke-linejoin="round"/>
<path d="M16.5 12.8333H9.16663" stroke="#C9CCD1" stroke-width="1.83333" stroke-linecap="round" stroke-linejoin="round"/>
<path d="M3.66671 20.1666H18.3334C18.8196 20.1666 19.2859 19.9734 19.6297 19.6296C19.9736 19.2858 20.1667 18.8195 20.1667 18.3333V3.66659C20.1667 3.18035 19.9736 2.71404 19.6297 2.37022C19.2859 2.02641 18.8196 1.83325 18.3334 1.83325H7.33337C6.84714 1.83325 6.38083 2.02641 6.03701 2.37022C5.69319 2.71404 5.50004 3.18035 5.50004 3.66659V18.3333C5.50004 18.8195 5.30689 19.2858 4.96307 19.6296C4.61925 19.9734 4.15294 20.1666 3.66671 20.1666ZM3.66671 20.1666C3.18048 20.1666 2.71416 19.9734 2.37034 19.6296C2.02653 19.2858 1.83337 18.8195 1.83337 18.3333V10.0833C1.83337 9.59702 2.02653 9.13071 2.37034 8.78689C2.71416 8.44307 3.18048 8.24992 3.66671 8.24992H5.50004" stroke="#C9CCD1" stroke-width="1.83333" stroke-linecap="round" stroke-linejoin="round"/>
<path d="M15.5833 5.5H10.0833C9.57703 5.5 9.16663 5.91041 9.16663 6.41667V8.25C9.16663 8.75626 9.57703 9.16667 10.0833 9.16667H15.5833C16.0896 9.16667 16.5 8.75626 16.5 8.25V6.41667C16.5 5.91041 16.0896 5.5 15.5833 5.5Z" stroke="#C9CCD1" stroke-width="1.83333" stroke-linecap="round" stroke-linejoin="round"/>
</g>
<defs>
<clipPath id="clip0_886_213">
<rect width="22" height="22" fill="white"/>
</clipPath>
</defs>
</svg>
