<svg width="22" height="22" viewBox="0 0 22 22" fill="none" xmlns="http://www.w3.org/2000/svg">
<g clip-path="url(#clip0_886_219)">
<path d="M11 7.33325L16.5 4.58325L11 1.83325V10.9999" stroke="#C9CCD1" stroke-width="1.83333" stroke-linecap="round" stroke-linejoin="round"/>
<path d="M7.33333 10.9907L2.29167 13.8691C2.15059 13.949 2.03325 14.0649 1.95162 14.205C1.86998 14.3452 1.82697 14.5044 1.82697 14.6666C1.82697 14.8287 1.86998 14.988 1.95162 15.1281C2.03325 15.2682 2.15059 15.3841 2.29167 15.4641L10.0833 19.9191C10.362 20.08 10.6782 20.1647 11 20.1647C11.3218 20.1647 11.638 20.08 11.9167 19.9191L19.7083 15.4641C19.8494 15.3841 19.9667 15.2682 20.0484 15.1281C20.13 14.988 20.173 14.8287 20.173 14.6666C20.173 14.5044 20.13 14.3452 20.0484 14.205C19.9667 14.0649 19.8494 13.949 19.7083 13.8691L14.6667 10.9999" stroke="#C9CCD1" stroke-width="1.83333" stroke-linecap="round" stroke-linejoin="round"/>
<path d="M5.94916 11.7791L16.0508 17.5541" stroke="#C9CCD1" stroke-width="1.83333" stroke-linecap="round" stroke-linejoin="round"/>
<path d="M16.0509 11.7791L5.95837 17.5541" stroke="#C9CCD1" stroke-width="1.83333" stroke-linecap="round" stroke-linejoin="round"/>
</g>
<defs>
<clipPath id="clip0_886_219">
<rect width="22" height="22" fill="white"/>
</clipPath>
</defs>
</svg>
