<svg width="22" height="22" viewBox="0 0 22 22" fill="none" xmlns="http://www.w3.org/2000/svg">
<g clip-path="url(#clip0_886_190)">
<path d="M5.5 20.1666V3.66659C5.5 3.18035 5.69315 2.71404 6.03697 2.37022C6.38079 2.02641 6.8471 1.83325 7.33333 1.83325H14.6667C15.1529 1.83325 15.6192 2.02641 15.963 2.37022C16.3068 2.71404 16.5 3.18035 16.5 3.66659V20.1666H5.5Z" stroke="#C9CCD1" stroke-width="1.83333" stroke-linecap="round" stroke-linejoin="round"/>
<path d="M5.50004 11H3.66671C3.18048 11 2.71416 11.1932 2.37034 11.537C2.02653 11.8808 1.83337 12.3471 1.83337 12.8333V18.3333C1.83337 18.8196 2.02653 19.2859 2.37034 19.6297C2.71416 19.9735 3.18048 20.1667 3.66671 20.1667H5.50004" stroke="#C9CCD1" stroke-width="1.83333" stroke-linecap="round" stroke-linejoin="round"/>
<path d="M16.5 8.25H18.3333C18.8196 8.25 19.2859 8.44315 19.6297 8.78697C19.9735 9.13079 20.1667 9.5971 20.1667 10.0833V18.3333C20.1667 18.8196 19.9735 19.2859 19.6297 19.6297C19.2859 19.9735 18.8196 20.1667 18.3333 20.1667H16.5" stroke="#C9CCD1" stroke-width="1.83333" stroke-linecap="round" stroke-linejoin="round"/>
<path d="M9.16663 5.5H12.8333" stroke="#C9CCD1" stroke-width="1.83333" stroke-linecap="round" stroke-linejoin="round"/>
<path d="M9.16663 9.16675H12.8333" stroke="#C9CCD1" stroke-width="1.83333" stroke-linecap="round" stroke-linejoin="round"/>
<path d="M9.16663 12.8333H12.8333" stroke="#C9CCD1" stroke-width="1.83333" stroke-linecap="round" stroke-linejoin="round"/>
<path d="M9.16663 16.5H12.8333" stroke="#C9CCD1" stroke-width="1.83333" stroke-linecap="round" stroke-linejoin="round"/>
</g>
<defs>
<clipPath id="clip0_886_190">
<rect width="22" height="22" fill="white"/>
</clipPath>
</defs>
</svg>
